<?xml version="1.0" encoding="UTF-8" standalone="no"?>
<!-- Created with Inkscape (http://www.inkscape.org/) -->

<svg
   width="300mm"
   height="150mm"
   viewBox="0 0 300 150"
   version="1.1"
   id="svg1"
   xml:space="preserve"
   sodipodi:docname="logo.svg"
   inkscape:export-filename="../../../../../Documents/ponent-pla.svg"
   inkscape:export-xdpi="200"
   inkscape:export-ydpi="200"
   inkscape:version="1.3.2 (091e20e, 2023-11-25)"
   xmlns:inkscape="http://www.inkscape.org/namespaces/inkscape"
   xmlns:sodipodi="http://sodipodi.sourceforge.net/DTD/sodipodi-0.dtd"
   xmlns="http://www.w3.org/2000/svg"
   xmlns:svg="http://www.w3.org/2000/svg"><sodipodi:namedview
     id="namedview1"
     pagecolor="#ffffff"
     bordercolor="#000000"
     borderopacity="0.25"
     inkscape:showpageshadow="2"
     inkscape:pageopacity="0.0"
     inkscape:pagecheckerboard="0"
     inkscape:deskcolor="#d1d1d1"
     inkscape:document-units="mm"
     inkscape:zoom="0.33425694"
     inkscape:cx="566.92913"
     inkscape:cy="282.71664"
     inkscape:window-width="1440"
     inkscape:window-height="846"
     inkscape:window-x="0"
     inkscape:window-y="25"
     inkscape:window-maximized="0"
     inkscape:current-layer="svg1" /><defs
     id="defs1" /><g
     id="layer1"><path
       style="font-weight:bold;font-size:52.4199px;font-family:Syncopate;-inkscape-font-specification:'Syncopate Bold';text-align:center;letter-spacing:-4.56406px;text-anchor:middle;fill:#ffffff;stroke-width:0.464349;stroke-miterlimit:0;stroke-dasharray:0.464348, 0.464348"
       d="m 50.218652,34.10123 q 0,2.636353 -0.76787,4.863174 -0.76787,2.201227 -2.482778,3.813753 -1.689314,1.58693 -4.402453,2.482778 -2.713139,0.895848 -6.603679,0.895848 H 20.19495 V 57.265297 H 10.698962 V 22.096869 h 25.26291 q 3.89054,0 6.603679,0.895847 2.713139,0.870253 4.402453,2.482779 1.714908,1.58693 2.482778,3.788157 0.76787,2.201226 0.76787,4.837578 z m -9.598371,0.153574 q 0,-1.228591 -0.358339,-2.098843 -0.332743,-0.895848 -1.126209,-1.458953 -0.793465,-0.563104 -2.073247,-0.819061 -1.279783,-0.281552 -3.148266,-0.281552 H 20.19495 v 9.060862 h 13.71927 q 1.868483,0 3.148266,-0.204766 1.279782,-0.23036 2.073247,-0.742274 0.793466,-0.537508 1.126209,-1.382165 0.358339,-0.844656 0.358339,-2.073248 z m 58.401249,5.451874 q 0,4.530431 -1.663717,8.01144 -1.663718,3.455413 -4.760792,5.784618 -3.097074,2.329204 -7.525122,3.5322 -4.402453,1.1774 -9.905518,1.1774 -5.503066,0 -9.956709,-1.1774 -4.428049,-1.202996 -7.550718,-3.5322 -3.12267,-2.329205 -4.811983,-5.784618 -1.689313,-3.481009 -1.689313,-8.01144 0,-4.53043 1.689313,-7.985844 1.689313,-3.481008 4.811983,-5.810213 3.122669,-2.329204 7.550718,-3.506605 4.453643,-1.202995 9.956709,-1.202995 5.503065,0 9.905518,1.202995 4.428048,1.177401 7.525122,3.506605 3.097074,2.329205 4.760792,5.810213 1.663717,3.455414 1.663717,7.985844 z m -9.59837,0 q 0,-1.970865 -0.639891,-3.916135 -0.614296,-1.970865 -2.226822,-3.5322 -1.586931,-1.561335 -4.351261,-2.53397 -2.764331,-0.972634 -7.038805,-0.972634 -2.866713,0 -5.042344,0.460721 -2.175631,0.435126 -3.762561,1.228592 -1.586931,0.793465 -2.661948,1.868482 -1.075018,1.049422 -1.714909,2.278014 -0.639891,1.202995 -0.921443,2.533969 -0.255957,1.305379 -0.255957,2.585161 0,1.305379 0.255957,2.636353 0.281552,1.330974 0.921443,2.559565 0.639891,1.202996 1.714909,2.252418 1.075017,1.049421 2.661948,1.842887 1.58693,0.767869 3.762561,1.228591 2.175631,0.435126 5.042344,0.435126 4.274474,0 7.038805,-0.972635 2.76433,-0.972634 4.351261,-2.533969 1.612526,-1.561335 2.226822,-3.506605 0.639891,-1.970865 0.639891,-3.941731 z M 136.33196,57.265297 112.60479,33.103 V 57.265297 H 103.1088 V 22.096869 h 10.31505 l 23.75276,24.264679 V 22.096869 h 9.4448 v 35.168428 z m 16.73152,0 V 22.096869 h 35.60355 v 7.499526 h -25.85161 v 5.810214 h 24.52064 v 7.499526 h -24.52064 v 6.859635 h 26.20995 v 7.499527 z m 73.78424,0 L 203.12055,33.103 v 24.162297 h -9.49599 V 22.096869 h 10.31505 l 23.75277,24.264679 V 22.096869 h 9.44479 V 57.265297 Z M 263.2879,29.749969 v 27.515328 h -9.49599 V 29.749969 h -14.92227 v -7.6531 h 39.36612 v 7.6531 z"
       id="text5"
       transform="scale(1.0221508,0.97832922)"
       aria-label="PONENT" /><path
       style="font-weight:bold;font-size:100.449px;font-family:Syncopate;-inkscape-font-specification:'Syncopate Bold';text-align:center;letter-spacing:-11.7712px;text-anchor:middle;fill:#ffffff;stroke-width:0.889799;stroke-miterlimit:0;stroke-dasharray:0.889797, 0.889797"
       d="m 89.126246,103.8421 q 0,6.47425 -1.422374,11.52613 -1.422373,5.00283 -4.021884,8.73043 -2.550463,3.7276 -6.179967,6.32711 -3.580458,2.59951 -7.99472,4.16903 -4.414263,1.56951 -9.515189,2.30522 -5.100925,0.68667 -10.643277,0.68667 H 6.5795352 V 70.19561 H 49.25074 q 5.542352,0 10.643278,0.73571 5.100925,0.686663 9.515188,2.256179 4.46331,1.569515 8.092815,4.169026 3.629504,2.550462 6.179967,6.327109 2.599511,3.7276 4.021884,8.730431 1.422374,5.002831 1.422374,11.428035 z m -18.343714,0 q 0,-4.855689 -1.275231,-8.436146 Q 68.281117,91.825496 65.485417,89.52027 62.738765,87.165997 58.275455,86.037908 53.812145,84.860771 47.38694,84.860771 H 24.776106 V 122.92152 H 47.38694 q 6.425205,0 10.888515,-1.12809 4.46331,-1.17713 7.209962,-3.53141 2.7957,-2.40332 4.021884,-5.98377 1.275231,-3.58046 1.275231,-8.43615 z M 157.59653,137.58669 112.12962,91.285975 V 137.58669 H 93.933051 V 70.19561 h 19.766089 l 45.51595,46.4969 v -46.4969 h 18.09848 v 67.39108 z m 105.89341,-18.58896 q 0,3.92379 -1.02999,6.81759 -1.03,2.89379 -2.8938,5.00283 -1.81475,2.05999 -4.41426,3.38427 -2.55046,1.27523 -5.68949,2.05999 -3.08999,0.73571 -6.6214,1.02999 -3.53141,0.29429 -7.30805,0.29429 H 186.63273 V 70.19561 h 48.01736 q 2.8938,0 5.78759,0.245237 2.94285,0.245236 5.5914,0.931899 2.64856,0.637616 4.90474,1.814753 2.30522,1.177136 3.97284,3.089984 1.71665,1.912847 2.64855,4.610452 0.98095,2.697605 0.98095,6.376157 0,6.572346 -3.23713,10.447088 -3.23712,3.82569 -10.20185,5.10093 4.90474,0.34333 8.3871,1.52046 3.53141,1.12809 5.73854,3.13903 2.20713,1.9619 3.23713,4.85569 1.02999,2.84475 1.02999,6.67044 z M 240.78102,90.157886 q 0,-1.275231 -0.39238,-2.403321 -0.39238,-1.177136 -1.42238,-2.059989 -1.02999,-0.882852 -2.7957,-1.422373 -1.7657,-0.539521 -4.51235,-0.539521 H 204.8293 v 12.654219 h 26.82891 q 2.74665,0 4.51235,-0.490474 1.76571,-0.490473 2.7957,-1.324278 1.03,-0.833806 1.42238,-1.961895 0.39238,-1.177137 0.39238,-2.452368 z m 4.21807,26.730814 q 0,-2.30523 -0.78476,-3.67855 -0.78476,-1.42238 -2.45237,-2.15809 -1.66761,-0.78476 -4.31617,-1.02999 -2.64855,-0.24524 -6.32711,-0.24524 H 204.8293 v 14.27278 h 26.28938 q 3.67856,0 6.32711,-0.24523 2.64856,-0.24524 4.31617,-1.03 1.66761,-0.78476 2.45237,-2.15808 0.78476,-1.42238 0.78476,-3.7276 z"
       id="text6"
       transform="scale(1.0644311,0.93946898)"
       aria-label="DNB" /></g></svg>
