<?xml version="1.0" standalone="no"?>
<!DOCTYPE svg PUBLIC "-//W3C//DTD SVG 20010904//EN"
 "http://www.w3.org/TR/2001/REC-SVG-20010904/DTD/svg10.dtd">
<svg version="1.0" xmlns="http://www.w3.org/2000/svg"
 width="374.000000pt" height="374.000000pt" viewBox="0 0 374.000000 374.000000"
 preserveAspectRatio="xMidYMid meet">
<metadata>
Created by potrace 1.14, written by Peter Selinger 2001-2017
</metadata>
<g transform="translate(0.000000,374.000000) scale(0.100000,-0.100000)"
fill="#000000" stroke="none">
<path d="M0 1870 l0 -1870 1870 0 1870 0 -2 1873 c-2 1029 -4 1619 -5 1309
l-3 -562 -1836 0 -1835 0 1 118 c1 64 1 316 1 560 l-1 442 -30 0 -30 0 0
-1870z m1097 604 c12 -4 23 -9 23 -13 0 -3 11 -7 24 -7 91 -6 155 -156 111
-261 -21 -50 -41 -70 -100 -102 -48 -25 -57 -26 -200 -26 -145 0 -152 1 -208
28 -81 40 -109 84 -110 174 -1 122 49 177 186 209 60 13 216 12 274 -2z m-560
-16 c49 -27 73 -64 73 -115 0 -110 -57 -144 -257 -151 l-133 -5 0 -64 0 -64
-75 2 -75 2 0 209 0 210 218 -4 c182 -3 222 -6 249 -20z m1066 -94 c66 -63
121 -113 124 -110 3 2 4 55 4 115 l-2 111 75 0 75 0 6 -32 c3 -18 4 -112 3
-208 l-3 -175 -77 -2 -77 -2 -85 81 c-47 44 -86 86 -86 94 0 9 -4 13 -8 10 -5
-3 -24 10 -42 29 -18 19 -37 32 -41 30 -4 -3 -5 -44 -3 -92 2 -49 1 -102 -2
-119 l-6 -31 -74 0 -74 -1 0 209 0 209 88 0 87 0 118 -116z m799 89 c4 -75 19
-68 -150 -71 l-152 -3 0 -24 c0 -24 2 -25 73 -26 39 0 107 0 150 1 l77 1 0
-50 0 -51 -150 0 -150 0 0 -30 0 -30 156 0 155 0 -3 -52 -3 -53 -227 -2 c-206
-1 -228 0 -229 15 -1 10 -1 71 0 137 0 66 0 153 1 193 l0 72 225 0 225 0 2
-27z m230 9 c-1 -8 2 -11 9 -7 6 4 56 -38 116 -98 59 -59 110 -104 115 -101 4
3 8 54 8 115 l0 109 75 0 75 0 0 -210 0 -211 -77 2 -77 2 -131 126 -130 126
-3 -128 -3 -127 -69 1 c-40 1 -73 6 -77 13 -7 11 -12 385 -5 399 2 4 43 6 90
5 66 -2 86 -6 84 -16z m959 -14 c0 -18 2 -43 5 -55 4 -22 2 -23 -86 -23 l-90
0 -1 -62 c0 -35 -1 -103 -2 -153 l-2 -90 -77 -1 -78 -1 0 153 0 154 -90 0 -90
0 0 55 0 55 255 0 255 0 1 -32z m-2676 -477 c131 -43 203 -94 249 -176 53 -96
57 -266 8 -365 -15 -31 -33 -54 -40 -52 -8 1 -11 -2 -6 -9 14 -24 -95 -97
-191 -127 -113 -36 -192 -42 -542 -42 l-333 0 0 401 0 401 393 -4 c376 -4 395
-5 462 -27z m950 -196 l230 -223 3 224 2 224 150 0 150 0 0 -400 0 -400 -151
0 -151 0 -248 240 c-136 132 -250 240 -254 240 -3 0 -6 -108 -6 -240 l0 -240
-150 0 -150 0 0 400 0 400 173 0 172 -1 230 -224z m1579 199 c98 -51 135 -163
82 -244 -15 -23 -42 -48 -61 -57 -19 -9 -35 -19 -35 -22 0 -3 20 -14 45 -24
87 -36 133 -121 120 -221 -9 -61 -24 -92 -62 -127 -78 -73 -125 -79 -620 -79
l-413 0 0 400 0 401 453 -3 c435 -3 454 -4 491 -24z m-3241 -978 c27 -30 28
-31 8 -34 -27 -4 -27 -22 -1 -22 11 0 21 1 23 2 1 1 12 -4 25 -11 19 -10 26
-10 40 1 9 7 13 8 9 2 -3 -6 -2 -24 3 -40 6 -21 9 -23 9 -9 2 24 99 71 114 56
5 -5 16 -7 23 -4 27 10 13 -16 -33 -61 l-47 -46 50 -53 c27 -28 52 -53 57 -55
4 -2 7 -28 7 -58 l0 -54 -51 0 c-46 0 -55 4 -88 38 -20 20 -47 52 -60 70 -14
18 -30 31 -37 28 -9 -3 -11 1 -7 12 4 13 2 12 -10 -3 -21 -25 -21 -35 -2 -35
23 0 18 -11 -27 -57 -38 -38 -47 -43 -88 -43 -46 0 -46 0 -42 30 2 16 8 28 12
25 8 -5 58 30 72 50 4 5 7 19 7 30 -1 16 -2 17 -6 3 -2 -10 -10 -15 -19 -11
-20 7 -18 27 6 48 27 24 25 34 -10 70 -25 26 -29 36 -22 55 6 15 11 19 16 12
4 -7 12 -12 17 -12 6 0 7 5 4 10 -3 6 -1 10 4 10 6 0 11 -5 11 -12 0 -6 2 -9
5 -7 9 9 -8 49 -20 49 -8 0 -15 8 -18 18 -3 13 -6 10 -11 -10 -5 -18 -15 -28
-26 -28 -10 0 -21 -6 -23 -12 -3 -8 -6 -7 -6 4 -1 9 4 20 9 23 14 9 12 55 -2
56 -7 1 -2 5 12 9 40 13 83 0 113 -34z m256 38 c25 -5 31 -11 31 -33 0 -15 -5
-32 -10 -37 -10 -10 -66 -5 -119 12 -22 6 -23 5 -19 -19 3 -15 1 -27 -3 -27
-5 0 -9 7 -9 16 0 9 -5 12 -12 8 -7 -4 -2 5 11 19 14 15 30 27 37 27 6 0 14 9
17 20 5 21 23 24 76 14z m405 -44 c26 -27 52 -50 59 -50 7 0 35 23 62 50 47
47 52 50 102 50 l53 0 0 -53 c0 -50 -3 -55 -50 -102 -27 -27 -50 -54 -50 -60
1 -5 14 -26 31 -45 16 -19 25 -36 19 -38 -17 -6 -11 -22 9 -22 26 0 37 -18 40
-62 l2 -38 -54 0 c-56 0 -55 -1 -139 77 l-26 25 -55 -56 c-57 -59 -59 -60
-119 -50 -38 7 -38 7 -38 53 0 43 4 51 50 96 28 27 50 54 50 60 0 6 -22 33
-50 60 -47 47 -50 53 -50 103 l0 52 54 0 c51 0 55 -2 100 -50z m640 1 l38 -39
-53 10 c-30 5 -59 14 -66 20 -9 7 -10 2 -3 -23 12 -40 19 -47 29 -30 5 8 14
10 21 6 9 -5 11 -4 6 3 -5 8 2 12 18 12 14 0 26 -4 26 -10 0 -5 7 -7 15 -4 8
4 15 1 15 -5 0 -6 6 -8 14 -5 10 4 12 -2 9 -23 -3 -20 -2 -24 5 -14 8 11 10
11 14 0 3 -8 14 -3 34 18 24 24 38 30 77 32 27 0 53 -1 58 -4 5 -3 -11 -27
-36 -53 -25 -26 -45 -51 -45 -57 0 -5 25 -34 56 -64 53 -52 55 -56 52 -100
l-3 -46 -48 -3 c-52 -3 -66 4 -100 52 -18 27 -19 29 -2 16 17 -13 18 -13 13 1
-8 20 9 39 34 39 15 0 16 3 6 19 -7 11 -15 18 -19 15 -4 -2 -10 0 -14 6 -3 6
-16 -1 -29 -15 -26 -28 -46 -32 -46 -9 0 8 4 13 9 10 18 -11 18 44 0 65 l-17
20 -7 -20 c-3 -12 -3 -25 0 -31 3 -5 2 -10 -4 -10 -5 0 -13 5 -16 10 -3 6 -12
10 -18 10 -8 0 -9 -3 -1 -8 6 -4 13 -14 17 -23 5 -14 -1 -17 -36 -15 -35 1
-42 5 -48 26 -7 23 -7 24 -8 3 -1 -15 -6 -21 -16 -17 -12 5 -11 9 5 27 33 35
30 60 -11 95 -21 17 -27 27 -18 32 21 14 1 43 -26 38 -24 -5 -36 7 -15 14 6 2
12 17 13 33 4 57 60 55 121 -4z m261 43 c13 -5 14 -8 3 -15 -10 -7 -10 -9 0
-9 6 0 12 -9 12 -20 0 -19 -5 -21 -73 -35 -9 -2 -21 4 -27 13 -6 11 -10 12
-10 4 0 -10 -3 -10 -14 0 -12 10 -12 15 -2 23 7 6 15 18 19 28 7 18 58 24 92
11z m398 -44 c25 -27 49 -50 54 -50 5 0 31 22 58 50 47 47 53 50 103 50 l52 0
0 -45 c0 -29 -4 -45 -12 -46 -9 0 -9 -2 1 -6 9 -4 -4 -22 -40 -59 l-53 -54 39
-42 c53 -57 65 -80 65 -127 l0 -39 -53 -1 c-51 0 -54 2 -115 61 -46 45 -62 55
-62 42 -1 -18 -32 -58 -77 -97 -17 -15 -30 -17 -67 -12 l-46 7 0 49 c0 45 4
53 50 102 27 28 50 54 50 57 0 3 -23 27 -50 55 -41 40 -50 56 -50 84 0 47 24
71 71 71 32 0 43 -7 82 -50z m622 19 c19 -17 35 -38 35 -46 0 -12 -3 -13 -13
-4 -8 6 -17 8 -20 4 -14 -14 -6 -23 21 -23 47 -1 62 -21 62 -82 0 -30 -5 -59
-12 -66 -9 -9 -7 -16 7 -32 23 -26 32 -19 37 31 3 33 2 37 -8 24 -10 -14 -12
-7 -12 39 0 31 5 59 10 62 6 4 7 -3 3 -17 l-7 -24 19 22 c11 13 23 20 26 17 3
-3 15 3 27 14 17 16 30 19 63 15 23 -3 43 -6 44 -7 1 -1 -21 -26 -49 -55 l-50
-53 37 -38 c20 -21 33 -40 28 -43 -15 -9 -76 1 -84 14 -4 7 -10 3 -15 -12 l-8
-24 -7 25 c-7 25 -7 25 -8 2 -1 -14 -5 -21 -12 -16 -8 4 -9 -1 -4 -17 7 -24 7
-24 -14 2 -12 16 -30 27 -46 27 -32 0 -44 -18 -16 -25 28 -7 27 -11 -17 -59
-34 -37 -42 -41 -91 -43 -50 -2 -54 -1 -41 14 12 14 12 18 -1 26 -12 8 -12 10
1 18 10 7 17 6 22 -2 5 -8 8 -7 8 5 0 9 5 20 12 24 7 4 8 3 4 -4 -4 -7 -1 -12
8 -12 9 0 16 7 16 16 0 8 5 12 10 9 6 -4 10 7 10 26 0 30 -1 31 -13 15 -13
-18 -14 -18 -21 -1 -4 12 0 25 14 37 25 24 25 40 0 63 -28 25 -24 84 6 80 12
-1 21 4 21 12 0 7 -6 13 -14 13 -7 0 -13 5 -13 10 0 16 -50 12 -56 -5 -8 -19
-34 -20 -34 -1 0 7 3 28 6 45 6 29 9 31 50 31 34 0 51 -7 79 -31z m280 23 c6
-4 11 -23 12 -42 2 -28 0 -31 -7 -15 -7 17 -9 17 -9 3 -1 -22 -53 -25 -94 -5
-29 13 -36 27 -13 27 7 0 16 9 19 20 4 16 13 20 44 20 21 0 43 -4 48 -8z m393
-46 c24 -25 49 -46 55 -46 7 0 35 23 62 50 47 47 52 50 102 50 l53 0 0 -45 c0
-29 -4 -45 -12 -46 -9 0 -9 -2 1 -6 9 -4 -3 -22 -39 -58 -59 -59 -59 -58 8
-129 40 -43 43 -49 40 -93 l-3 -48 -49 -3 c-48 -3 -50 -2 -103 53 l-55 56 -58
-56 c-58 -54 -61 -56 -107 -52 l-48 4 -3 49 c-3 47 -1 51 48 99 27 27 50 54
50 61 0 6 -9 19 -21 30 -12 10 -30 31 -41 46 -17 25 -17 27 -2 21 10 -4 15 -2
11 4 -3 5 1 22 9 38 8 15 12 30 9 33 -3 3 -5 0 -5 -7 0 -7 -4 -9 -10 -6 -6 4
-10 -5 -10 -21 0 -22 -3 -24 -14 -15 -11 9 -15 9 -19 -1 -4 -8 -6 -7 -6 5 -1
9 6 17 14 17 10 0 15 10 15 29 0 20 6 31 18 33 41 9 69 -3 110 -46z m-525 -32
c4 -23 3 -24 -10 -11 -9 8 -12 20 -9 26 10 16 13 14 19 -15z m-1293 0 c0 -8
-4 -12 -10 -9 -5 3 -10 10 -10 16 0 5 5 9 10 9 6 0 10 -7 10 -16z m1074 1 c-4
-8 -10 -12 -15 -9 -11 6 -2 24 11 24 5 0 7 -7 4 -15z m171 -175 c3 -5 1 -10
-4 -10 -6 0 -11 5 -11 10 0 6 2 10 4 10 3 0 8 -4 11 -10z m-165 -46 c0 -8 -4
-12 -10 -9 -5 3 -10 13 -10 21 0 8 5 12 10 9 6 -3 10 -13 10 -21z m-2600 6 c0
-5 -4 -10 -10 -10 -5 0 -10 5 -10 10 0 6 5 10 10 10 6 0 10 -4 10 -10z m1305
-10 c5 -15 11 -18 23 -12 16 8 92 5 101 -3 2 -3 -16 -25 -40 -50 -39 -41 -47
-45 -89 -45 -46 0 -46 0 -47 35 -1 35 16 51 18 18 1 -17 2 -17 6 0 2 9 9 15
14 12 5 -4 9 3 9 14 0 11 -4 23 -10 26 -13 8 -13 25 -1 25 5 0 13 -9 16 -20z
m1613 -13 c7 -5 12 -3 12 3 0 7 7 5 16 -4 10 -11 14 -30 12 -58 l-3 -43 -50 3
c-51 4 -85 25 -107 67 -6 11 -7 17 -3 13 4 -4 14 0 22 10 8 9 12 12 9 5 -4 -6
-2 -14 3 -17 5 -3 11 3 14 13 5 20 49 24 75 8z m-2653 -281 c-72 -24 -109 -44
-159 -86 -77 -64 -126 -139 -152 -230 -11 -40 -12 -26 -13 143 l-1 187 183 -1
c164 0 178 -2 142 -13z m541 -12 c5 -18 9 -22 14 -13 5 7 6 17 4 24 -3 8 24
12 96 14 91 2 100 1 101 -16 2 -29 -2 -58 -10 -63 -3 -3 -11 -14 -17 -25 -6
-11 -25 -26 -42 -34 -18 -8 -32 -19 -32 -24 0 -5 7 -4 15 3 23 19 19 7 -30
-81 -25 -45 -45 -89 -46 -98 0 -9 -5 -2 -10 14 -5 17 -6 39 -3 50 4 14 3 16
-4 6 -7 -9 -11 0 -16 33 -7 45 -26 74 -26 40 0 -16 -1 -16 -15 2 -18 24 -19
35 -1 28 21 -8 26 9 10 31 -8 10 -14 13 -14 6 0 -17 -39 -4 -70 24 -39 35 -93
64 -156 84 l-59 20 152 0 153 1 6 -26z m323 -2 c-36 -15 -74 -34 -84 -42 -17
-14 -18 -13 -12 3 4 10 7 29 7 41 0 22 4 23 78 24 l77 1 -66 -27z m912 -4
c-35 -18 -87 -53 -116 -80 -29 -26 -56 -44 -60 -40 -5 4 -5 2 -2 -4 3 -6 -5
-27 -18 -46 -13 -20 -32 -56 -41 -79 -22 -57 -34 -70 -34 -36 0 15 -4 27 -9
27 -6 0 -24 27 -42 61 -51 96 -164 184 -279 220 -14 4 130 7 320 7 l345 1 -64
-31z m492 10 l-6 -23 25 23 c24 22 27 22 264 20 170 -2 227 -6 199 -12 -53
-12 -153 -76 -203 -130 -44 -48 -76 -104 -102 -181 l-17 -50 -12 40 c-7 22
-33 77 -57 123 -25 46 -42 87 -39 93 4 5 1 8 -6 7 -6 -2 -16 12 -21 30 -5 17
-13 32 -19 32 -6 0 -8 -4 -4 -9 15 -25 -21 -17 -92 19 l-78 40 87 0 c84 0 86
0 81 -22z m1075 -49 c-1 -58 -4 -68 -14 -55 -10 15 -12 15 -18 1 -9 -25 -63
-19 -82 11 -9 14 -23 23 -30 20 -7 -3 -21 5 -31 17 -10 13 -27 23 -38 24 -11
1 -47 14 -80 27 l-60 26 178 0 177 0 -2 -71z m-48 -89 c0 -5 6 -7 13 -5 28 11
38 -11 35 -81 l-3 -69 -17 35 c-10 19 -28 53 -42 75 -17 28 -21 42 -13 47 17
11 27 10 27 -2z"/>
<path d="M882 2370 c-84 -20 -111 -108 -52 -165 27 -25 40 -30 99 -33 85 -5
131 9 160 49 17 23 21 39 17 63 -14 75 -112 113 -224 86z"/>
<path d="M226 2372 c-3 -4 -4 -22 -4 -40 l1 -32 102 0 c100 0 125 7 125 36 0
33 -31 44 -125 44 -52 0 -96 -4 -99 -8z"/>
<path d="M471 1808 c-1 -15 -11 -18 -56 -18 l-55 0 2 -187 3 -188 170 0 c189
1 250 13 304 64 59 55 66 170 14 232 -48 57 -123 79 -275 80 -82 1 -98 3 -101
17 -4 15 -5 15 -6 0z"/>
<path d="M2801 1765 l1 -55 200 0 c118 0 207 4 219 10 23 13 26 62 3 84 -13
14 -47 16 -219 16 l-204 0 0 -55z"/>
<path d="M2807 1523 c-8 -17 -7 -127 2 -132 5 -3 64 -5 130 -5 74 1 121 -3
121 -9 0 -6 5 -6 13 1 6 6 45 10 85 10 56 -1 77 3 92 17 45 41 32 98 -27 114
-43 12 -410 15 -416 4z"/>
<path d="M150 1011 c0 -6 4 -13 10 -16 6 -3 7 1 4 9 -7 18 -14 21 -14 7z"/>
<path d="M279 865 c-3 -27 -9 -58 -13 -67 -6 -14 -3 -18 10 -19 11 0 13 -3 7
-6 -9 -3 -9 -11 3 -29 9 -13 21 -24 26 -24 6 0 5 6 -2 15 -6 8 -9 23 -5 35 4
12 2 26 -4 33 -5 7 -11 35 -13 62 l-3 50 -6 -50z"/>
<path d="M310 830 c0 -5 5 -10 11 -10 5 0 7 5 4 10 -3 6 -8 10 -11 10 -2 0 -4
-4 -4 -10z"/>
<path d="M158 783 c7 -3 16 -2 19 1 4 3 -2 6 -13 5 -11 0 -14 -3 -6 -6z"/>
<path d="M180 734 c0 -8 5 -12 10 -9 6 3 10 10 10 16 0 5 -4 9 -10 9 -5 0 -10
-7 -10 -16z"/>
<path d="M445 1009 c-4 -6 -5 -12 -2 -15 2 -3 7 2 10 11 7 17 1 20 -8 4z"/>
<path d="M460 980 c0 -5 5 -10 11 -10 5 0 7 5 4 10 -3 6 -8 10 -11 10 -2 0 -4
-4 -4 -10z"/>
<path d="M1575 860 c3 -5 8 -10 11 -10 2 0 4 5 4 10 0 6 -5 10 -11 10 -5 0 -7
-4 -4 -10z"/>
<path d="M1655 790 c4 -6 11 -8 16 -5 14 9 11 15 -7 15 -8 0 -12 -5 -9 -10z"/>
<path d="M1715 740 c3 -5 8 -10 11 -10 2 0 4 5 4 10 0 6 -5 10 -11 10 -5 0 -7
-4 -4 -10z"/>
<path d="M2960 789 c0 -5 5 -7 10 -4 6 3 10 8 10 11 0 2 -4 4 -10 4 -5 0 -10
-5 -10 -11z"/>
<path d="M2776 734 c-4 -9 -4 -19 -1 -22 2 -3 7 3 11 12 4 9 4 19 1 22 -2 3
-7 -3 -11 -12z"/>
<path d="M955 390 c-4 -6 -10 -8 -14 -6 -15 10 -33 -12 -26 -33 5 -18 22 -26
48 -22 13 2 7 -22 -9 -34 -12 -8 -14 -18 -9 -35 5 -16 9 -19 15 -10 4 7 13 9
19 6 6 -4 15 3 20 16 6 13 10 17 11 8 0 -12 4 -11 15 4 21 27 19 39 -5 33 -13
-3 -20 0 -20 10 0 8 -4 12 -9 8 -5 -3 -12 -1 -16 5 -4 6 -11 8 -16 5 -15 -10
-10 23 7 39 8 9 11 16 5 16 -5 0 -13 -5 -16 -10z m32 -122 c-3 -8 -6 -5 -6 6
-1 11 2 17 5 13 3 -3 4 -12 1 -19z"/>
<path d="M3551 394 c0 -11 3 -14 6 -6 3 7 2 16 -1 19 -3 4 -6 -2 -5 -13z"/>
<path d="M880 3730 c-77 -4 -91 -7 -75 -16 11 -6 32 -14 46 -17 14 -4 50 -33
80 -66 113 -125 120 -136 132 -207 11 -65 11 -68 -19 -123 -19 -35 -48 -69
-77 -91 -26 -19 -47 -42 -47 -51 0 -9 18 -33 41 -54 47 -42 61 -42 140 6 27
17 53 29 56 25 3 -3 -3 -9 -13 -12 -10 -4 -37 -21 -59 -38 -22 -16 -42 -31
-44 -33 -7 -5 91 -87 121 -102 16 -8 26 -16 24 -19 -4 -4 -64 17 -151 53 -43
18 -128 45 -142 45 -6 0 -37 -21 -70 -47 -88 -71 -87 -70 -82 -55 2 6 29 29
59 50 30 21 56 45 58 54 5 25 -55 46 -133 46 -39 1 -88 5 -110 11 -22 6 -61
16 -87 22 -27 7 -49 10 -51 8 -1 -2 -21 -25 -45 -51 -23 -26 -42 -52 -42 -58
0 -5 26 -23 58 -40 l57 -31 -67 6 c-82 7 -89 -7 -14 -24 44 -10 54 -15 50 -29
-5 -14 -4 -14 4 -3 9 12 18 12 64 -2 90 -26 105 -28 118 -12 7 8 16 15 21 15
14 0 11 -28 -3 -34 -16 -6 -12 -9 111 -82 96 -56 149 -68 143 -33 -1 9 12 27
30 40 17 13 46 36 64 52 43 37 82 43 143 22 60 -20 143 -24 149 -7 2 7 8 12
14 12 14 0 111 64 127 84 8 9 17 16 22 16 5 0 27 11 49 25 22 14 46 25 55 25
21 0 19 24 -5 45 -11 10 -20 29 -20 42 0 12 -4 22 -9 20 -8 -2 -114 149 -124
177 -3 8 -11 7 -26 -1 -31 -19 -40 -15 -13 5 19 15 21 21 12 52 -5 19 -10 69
-10 110 0 63 -11 138 -35 247 -5 22 -9 22 -193 25 -103 2 -230 1 -282 -2z
m260 -354 c0 -12 -5 -7 -19 24 -11 24 -11 24 3 6 9 -11 16 -24 16 -30z m170
-156 c-56 -50 -89 -67 -54 -29 21 24 93 79 103 79 3 0 -19 -23 -49 -50z m-115
-70 c-3 -5 -11 -10 -16 -10 -6 0 -7 5 -4 10 3 6 11 10 16 10 6 0 7 -4 4 -10z
m-470 -240 c-3 -5 -11 -10 -16 -10 -6 0 -7 5 -4 10 3 6 11 10 16 10 6 0 7 -4
4 -10z"/>
<path d="M1387 3732 c-16 -3 -18 -10 -12 -40 8 -44 8 -44 28 -36 12 4 37 51
37 69 0 6 -37 11 -53 7z"/>
<path d="M2320 3733 l-165 -4 -37 -36 c-35 -34 -48 -72 -52 -158 -1 -11 -7
-30 -14 -42 -20 -37 -14 -57 33 -103 25 -25 43 -50 41 -57 -8 -20 32 -35 75
-28 21 4 39 11 39 16 0 6 4 7 10 4 6 -4 7 -30 4 -65 -6 -61 17 -160 37 -160 5
0 9 -6 9 -14 0 -8 6 -16 13 -19 7 -3 42 -30 79 -61 36 -31 68 -56 71 -56 3 0
0 18 -8 40 -8 22 -11 39 -7 39 28 -4 40 3 35 21 -6 24 -42 37 -54 19 -6 -10
-15 -5 -39 20 -16 19 -30 39 -30 44 0 5 9 -2 21 -17 15 -19 30 -26 55 -26 l35
0 -30 32 c-35 37 -33 48 3 24 14 -9 30 -16 36 -16 20 0 53 -38 46 -55 -8 -22
18 -70 54 -96 16 -12 26 -27 23 -33 -3 -6 -3 -8 1 -5 9 8 164 -57 189 -79 26
-23 21 -28 -23 -24 -26 3 -41 10 -45 21 -6 21 -66 51 -99 51 -13 0 -26 7 -30
15 -3 8 -12 15 -21 15 -17 0 -20 -21 -5 -36 6 -6 6 -22 0 -44 -5 -19 -7 -43
-4 -54 4 -12 2 -16 -5 -11 -8 4 -10 22 -6 49 5 32 3 45 -9 55 -11 10 -13 18
-6 31 14 27 12 50 -4 56 -23 9 -42 -16 -38 -48 2 -15 0 -28 -6 -28 -5 0 -12
-15 -15 -32 -3 -26 2 -41 24 -69 17 -22 30 -53 34 -80 4 -31 3 -38 -4 -23 -13
29 -82 104 -96 104 -17 0 -65 53 -70 78 -2 11 -8 29 -13 39 -14 26 -62 69 -62
55 0 -6 11 -21 24 -34 13 -13 26 -35 30 -50 6 -25 3 -28 -36 -39 -24 -6 -56
-18 -73 -27 -21 -11 -65 -16 -152 -18 -68 -2 -123 -1 -123 1 0 2 17 9 38 15
47 12 79 44 65 62 -6 8 -7 25 -1 45 7 26 13 31 34 30 21 -2 31 6 46 32 l19 34
-36 -6 c-50 -8 -62 -20 -100 -102 -24 -49 -43 -75 -65 -87 -17 -10 -29 -22
-26 -27 3 -5 -1 -11 -9 -15 -11 -4 -13 -16 -8 -53 3 -26 9 -58 14 -70 l8 -21
843 -1 c464 0 858 2 876 5 l32 6 0 280 c0 263 -1 280 -17 273 -10 -3 -47 -16
-83 -27 -36 -11 -87 -28 -115 -38 -62 -23 -180 -61 -310 -101 -108 -33 -236
-90 -263 -117 -16 -16 -17 -14 -19 29 l-2 46 36 1 c20 1 41 6 47 12 5 5 24 10
42 10 35 0 59 22 50 45 -3 9 3 19 14 25 26 14 30 13 30 -11 0 -14 5 -19 18
-17 12 2 16 11 14 28 -3 24 -3 24 11 6 13 -18 18 -18 46 -7 17 8 31 19 31 27
0 7 16 16 38 20 20 3 51 12 67 20 38 17 221 80 300 102 l60 17 3 223 2 222
-277 0 c-651 1 -888 -1 -911 -7 -17 -4 -23 -2 -18 6 4 6 6 10 4 9 -2 -1 -77
-4 -168 -5z m35 -83 c-3 -5 -12 -10 -18 -10 -7 0 -6 4 3 10 19 12 23 12 15 0z
m-249 -51 c-9 -20 -15 -27 -16 -16 0 20 19 61 26 54 2 -2 -2 -19 -10 -38z
m170 -5 c-3 -8 0 -13 6 -11 7 1 16 -17 21 -39 8 -33 17 -46 48 -63 21 -12 54
-22 74 -23 21 -1 39 -7 42 -15 6 -16 -37 -113 -51 -113 -4 0 -4 -6 1 -12 12
-15 25 -78 17 -78 -4 0 -21 12 -39 28 -18 15 -49 40 -69 55 -38 29 -46 51 -21
61 21 8 19 33 -5 46 -23 13 -50 60 -50 90 0 13 -4 19 -11 14 -7 -4 -9 -22 -6
-48 4 -28 3 -35 -3 -21 -15 34 -11 81 10 108 11 14 20 30 20 37 0 6 5 8 11 5
6 -4 8 -13 5 -21z m319 -32 c-3 -3 -11 0 -18 7 -9 10 -8 11 6 5 10 -3 15 -9
12 -12z m-166 -44 c-1 -1 3 -14 10 -28 11 -24 11 -24 -3 -6 -15 18 -23 57 -10
44 3 -4 5 -8 3 -10z m-279 -37 c5 -21 29 -63 52 -92 l42 -54 -43 40 c-44 41
-71 88 -71 125 0 31 8 24 20 -19z m623 -113 c3 -11 2 -29 -2 -40 -6 -18 -8
-18 -20 -4 -8 9 -23 16 -35 16 -28 0 -66 -27 -66 -46 0 -8 -7 -17 -15 -20 -18
-7 -20 -55 -3 -72 8 -8 8 -12 1 -12 -12 0 -73 102 -73 122 0 10 3 9 9 -1 7
-11 17 -8 52 17 24 17 63 36 87 42 23 6 40 15 37 20 -3 6 1 7 8 4 8 -3 17 -15
20 -26z m87 -154 c0 -11 -40 28 -63 61 -15 23 -10 20 21 -12 23 -23 42 -45 42
-49z m-367 2 c18 -7 48 -31 67 -52 l35 -38 -45 38 c-25 20 -57 40 -73 43 -15
3 -30 10 -33 14 -8 13 12 11 49 -5z m712 -76 c-3 -5 -11 -10 -16 -10 -6 0 -7
5 -4 10 3 6 11 10 16 10 6 0 7 -4 4 -10z m-549 -19 c21 -2 106 -95 125 -138
11 -23 29 -49 41 -57 18 -13 20 -19 11 -38 -10 -23 -10 -23 -26 9 -11 20 -34
39 -64 54 -58 27 -117 84 -126 121 -4 14 -10 33 -13 42 -5 13 -1 15 17 12 13
-3 29 -5 35 -5z m294 -31 c0 -5 -2 -10 -4 -10 -3 0 -8 5 -11 10 -3 6 -1 10 4
10 6 0 11 -4 11 -10z m-83 -42 c-3 -8 -6 -5 -6 6 -1 11 2 17 5 13 3 -3 4 -12
1 -19z m-196 -239 c16 -8 25 -7 42 8 17 15 17 12 -3 -13 -19 -24 -27 -28 -33
-18 -16 28 -37 15 -37 -21 0 -19 4 -35 9 -35 5 0 11 -11 14 -25 4 -25 4 -25
-15 -8 -18 16 -19 27 -14 98 6 94 8 101 13 58 3 -20 12 -37 24 -44z"/>
<path d="M2331 3387 c-21 -23 -21 -57 0 -57 5 0 12 -1 16 -2 4 -2 8 16 9 40 1
23 1 42 0 42 -1 0 -12 -11 -25 -23z"/>
<path d="M2630 3101 c0 -24 66 -112 88 -117 13 -4 25 -4 28 -2 12 12 -18 57
-51 78 -19 12 -42 29 -50 37 -8 8 -15 10 -15 4z"/>
<path d="M100 3624 l0 -105 48 6 c61 9 85 15 78 22 -3 4 3 21 14 38 19 32 20
44 4 123 -4 20 -10 22 -74 22 l-70 0 0 -106z"/>
<path d="M280 3705 c0 -29 5 -31 27 -9 14 13 14 17 2 25 -23 14 -29 11 -29
-16z"/>
<path d="M465 3712 c3 -8 0 -21 -6 -29 -7 -7 -9 -17 -5 -20 6 -7 59 5 101 22
18 8 18 7 7 -7 -10 -13 -11 -22 -3 -37 16 -30 15 -31 -34 -31 -37 0 -50 -5
-75 -31 -16 -18 -30 -40 -30 -50 0 -11 -6 -19 -13 -19 -8 0 -20 -12 -28 -27
-19 -38 -40 -53 -66 -47 -11 3 -30 1 -41 -5 -11 -6 -28 -8 -37 -5 -15 6 -14 8
1 25 9 10 14 25 10 34 -9 23 -45 10 -80 -28 l-28 -32 6 28 c6 25 4 28 -16 25
-22 -3 -23 -7 -24 -93 -1 -119 4 -145 28 -145 25 0 68 23 92 49 11 12 23 21
29 21 5 0 18 12 29 26 11 14 26 23 33 21 6 -3 17 9 24 28 10 30 15 33 49 32
44 -1 70 -21 53 -41 -22 -26 16 -26 40 0 19 20 26 22 34 12 7 -9 20 -11 40 -7
17 4 25 7 19 8 -17 2 -27 33 -13 41 8 5 6 16 -7 36 -15 25 -11 23 27 -12 24
-23 62 -51 84 -63 23 -13 30 -19 15 -15 -22 6 -23 5 -11 -9 7 -9 28 -22 47
-29 19 -7 33 -17 31 -23 -5 -12 -40 -7 -45 6 -2 5 -8 9 -13 9 -12 0 2 -33 20
-47 9 -7 26 -13 38 -13 12 0 23 -5 25 -11 5 -15 36 0 43 21 3 10 14 20 24 23
20 5 32 53 20 83 -4 11 -8 13 -8 7 -1 -7 -8 -13 -16 -13 -17 0 -20 16 -5 25
14 9 12 99 -2 113 -7 7 -8 12 -2 12 5 0 15 -10 23 -21 10 -18 15 -19 22 -8 7
11 10 9 15 -8 7 -27 19 -30 28 -7 12 32 5 52 -28 78 -19 14 -38 26 -43 26 -4
0 -28 22 -53 49 -44 49 -52 52 -132 60 -4 1 -5 8 -2 16 5 13 -8 15 -95 13 -83
-2 -100 -5 -96 -16z m269 -79 c16 -13 38 -37 49 -51 11 -15 -2 -6 -29 20 -45
43 -53 47 -106 50 -32 2 -58 7 -58 11 0 18 115 -6 144 -30z m-96 -43 c33 -30
39 -59 14 -68 -9 -3 -11 3 -6 22 4 19 2 28 -11 32 -9 4 -20 1 -25 -6 -5 -8 -9
-1 -12 19 -6 39 -1 39 40 1z m-151 -37 c-3 -10 -5 -2 -5 17 0 19 2 27 5 18 2
-10 2 -26 0 -35z m263 20 l22 -28 -22 -3 c-23 -4 -73 35 -64 49 11 18 43 8 64
-18z m-132 -63 c25 -40 -4 -52 -43 -18 -19 16 -22 24 -13 30 22 13 43 9 56
-12z m172 -73 c0 -9 -29 -36 -40 -37 -4 0 -5 37 -1 72 1 13 41 -20 41 -35z"/>
<path d="M1466 3706 c-13 -51 7 -70 128 -130 107 -52 216 -85 216 -65 0 5 15
9 33 9 17 0 37 4 42 8 13 9 65 89 65 99 0 5 12 16 26 27 20 14 28 16 34 6 5
-9 9 -9 14 -1 9 14 -10 33 -51 55 -21 10 -57 16 -105 16 -68 0 -74 -2 -105
-32 -18 -18 -33 -27 -33 -21 0 6 7 16 15 23 8 7 15 16 15 21 0 5 -65 9 -144 9
l-144 0 -6 -24z"/>
<path d="M417 3679 c-14 -26 -15 -30 -2 -25 8 3 15 2 15 -3 0 -15 -37 -41 -58
-41 -12 0 -26 -9 -32 -20 -6 -11 -9 -20 -6 -20 9 0 126 63 126 68 0 2 -8 11
-17 18 -15 10 -16 15 -5 25 13 14 16 29 5 29 -5 0 -16 -14 -26 -31z"/>
<path d="M1974 3581 c-15 -23 -24 -44 -21 -47 3 -3 17 13 32 36 34 55 25 64
-11 11z"/>
<path d="M1404 3548 c-3 -5 -1 -21 4 -36 15 -39 32 -127 32 -168 0 -60 72
-173 97 -152 7 6 13 16 13 22 0 6 -4 5 -9 -3 -12 -19 -31 -4 -31 25 0 13 -5
24 -11 24 -6 0 -8 8 -4 19 3 11 0 23 -7 28 -8 4 -19 21 -26 37 -11 25 -10 30
5 42 19 14 104 10 151 -7 13 -5 30 -9 38 -9 21 0 17 28 -6 40 -11 6 -17 16
-14 25 4 11 2 13 -9 9 -9 -3 -15 0 -14 8 1 34 -5 46 -28 56 -14 6 -25 17 -25
24 0 7 -12 14 -26 14 -23 2 -21 -1 17 -29 54 -40 33 -47 -29 -11 -61 37 -111
54 -118 42z"/>
<path d="M1827 3373 c-2 -10 -8 -26 -12 -35 -5 -13 -2 -18 9 -18 9 0 16 8 16
19 0 11 3 26 6 35 3 9 2 16 -4 16 -5 0 -12 -8 -15 -17z"/>
<path d="M3711 3324 c0 -11 3 -14 6 -6 3 7 2 16 -1 19 -3 4 -6 -2 -5 -13z"/>
<path d="M291 3311 c-13 -23 -14 -51 -3 -51 18 1 43 30 40 46 -5 25 -25 28
-37 5z"/>
<path d="M972 3300 c0 -14 2 -19 5 -12 2 6 2 18 0 25 -3 6 -5 1 -5 -13z"/>
<path d="M1806 3265 c-9 -13 -30 -32 -47 -41 -17 -8 -28 -18 -25 -22 4 -3 12
0 18 6 7 7 22 12 35 12 16 0 24 7 29 25 3 14 10 22 15 19 5 -3 6 2 3 10 -8 21
-9 20 -28 -9z"/>
<path d="M660 3270 c0 -5 10 -10 23 -10 18 0 19 2 7 10 -19 13 -30 13 -30 0z"/>
<path d="M945 3260 c-3 -5 -1 -10 4 -10 6 0 11 5 11 10 0 6 -2 10 -4 10 -3 0
-8 -4 -11 -10z"/>
<path d="M728 3243 c7 -3 16 -2 19 1 4 3 -2 6 -13 5 -11 0 -14 -3 -6 -6z"/>
<path d="M1619 3213 c-15 -17 -12 -19 29 -28 27 -6 32 -4 32 13 0 24 -45 36
-61 15z"/>
<path d="M706 3208 c-10 -6 -38 -8 -64 -4 -55 7 -45 -5 18 -24 61 -18 61 -18
95 -1 l30 15 -25 4 c-14 2 -27 8 -30 12 -3 5 -14 4 -24 -2z"/>
<path d="M2036 3155 c-22 -19 -45 -35 -51 -35 -7 0 -29 -13 -49 -29 -24 -20
-54 -32 -84 -36 -82 -10 -124 -25 -129 -46 -3 -10 -8 -19 -12 -19 -4 0 -13
-16 -20 -36 -11 -31 -11 -38 3 -52 20 -20 83 -24 90 -5 4 9 12 10 28 4 36 -13
98 14 145 64 23 25 45 45 50 45 4 0 20 12 36 25 19 17 27 34 27 56 0 27 2 30
15 19 11 -10 18 -9 30 4 15 14 14 18 -6 46 -13 16 -25 30 -28 30 -3 -1 -24
-16 -45 -35z"/>
<path d="M120 3130 c0 -5 5 -10 10 -10 6 0 10 5 10 10 0 6 -4 10 -10 10 -5 0
-10 -4 -10 -10z"/>
<path d="M265 3135 c-5 -2 -45 -11 -87 -20 l-78 -17 0 -200 c0 -155 3 -199 13
-195 8 2 12 26 13 70 0 45 5 72 16 84 8 10 24 28 34 41 10 12 23 22 29 22 6 0
16 26 23 58 8 31 24 78 38 104 30 60 30 64 -1 53z"/>
<path d="M1568 2936 c-10 -7 -18 -21 -18 -30 0 -15 3 -15 30 4 31 22 39 40 18
40 -7 0 -21 -7 -30 -14z"/>
<path d="M1449 2893 c-13 -15 -12 -15 9 -4 23 12 28 21 13 21 -5 0 -15 -7 -22
-17z"/>
<path d="M1980 2889 c0 -5 5 -7 10 -4 6 3 10 8 10 11 0 2 -4 4 -10 4 -5 0 -10
-5 -10 -11z"/>
<path d="M1461 2871 l-24 -19 32 -31 c18 -17 36 -29 42 -26 14 9 11 45 -5 51
-8 3 -12 13 -9 25 7 24 -5 24 -36 0z"/>
<path d="M1387 2784 c5 -28 2 -38 -16 -50 -11 -8 -21 -24 -21 -35 0 -10 -6
-19 -12 -19 -7 0 -4 -6 7 -14 24 -16 71 -18 83 -2 15 18 20 90 8 102 -6 6 -18
21 -26 33 -21 31 -30 26 -23 -15z"/>
<path d="M1790 2809 c0 -5 5 -7 10 -4 6 3 10 8 10 11 0 2 -4 4 -10 4 -5 0 -10
-5 -10 -11z"/>
<path d="M1594 2790 c-26 -10 -69 -120 -52 -131 19 -12 86 65 90 102 3 35 -6
42 -38 29z"/>
<path d="M1652 2741 c-7 -14 -12 -31 -12 -39 0 -8 -8 -21 -17 -28 -17 -12 -17
-13 1 -20 15 -6 27 1 52 30 45 52 49 73 15 78 -21 3 -30 -1 -39 -21z"/>
<path d="M992 2681 c-29 -24 -14 -35 37 -26 29 5 38 11 37 23 -4 25 -48 26
-74 3z"/>
<path d="M690 2680 c0 -5 5 -10 11 -10 5 0 7 5 4 10 -3 6 -8 10 -11 10 -2 0
-4 -4 -4 -10z"/>
<path d="M3711 2674 c0 -11 3 -14 6 -6 3 7 2 16 -1 19 -3 4 -6 -2 -5 -13z"/>
<path d="M246 2671 c-4 -6 3 -12 16 -15 39 -7 68 -5 68 5 0 5 -11 9 -24 9 -13
0 -31 3 -39 6 -8 3 -18 1 -21 -5z"/>
<path d="M1225 2669 c-4 -6 -5 -12 -3 -14 7 -7 48 7 48 16 0 13 -37 11 -45 -2z"/>
</g>
</svg>
